<?xml version="1.0" encoding="UTF-8"?>
<svg height="16px" viewBox="0 0 16 16" width="16px" xmlns="http://www.w3.org/2000/svg">
    <path d="m 13.792969 8.480469 v -2.984375 l -2.582031 -1.492188 v -2.703125 h -0.980469 v 2.703125 l -2.09375 1.207032 l -0.328125 2.21875 l 0.328125 1.898437 l 2.09375 1.207031 v 2.421875 l -2.09375 1.210938 l -0.328125 0.402343 l 0.328125 0.726563 l 3.074219 -1.773437 v -2.988282 l 2.09375 -1.207031 l 2.34375 1.347656 l 0.488281 -0.84375 z m -0.976563 0 l -2.09375 1.210937 l -2.097656 -1.210937 v -2.421875 l 2.09375 -1.210938 l 2.097656 1.210938 z m 0 0"/>
    <path d="m 6.039062 12.957031 v -2.421875 l 2.097657 -1.207031 v -4.117187 l -2.097657 -1.207032 v -2.703125 h -0.976562 v 2.703125 l -2.585938 1.492188 v 2.984375 l -2.339843 1.351562 l 0.488281 0.847657 l 2.339844 -1.351563 l 2.097656 1.207031 v 2.421875 l -2.339844 1.351563 l 0.488282 0.847656 l 2.339843 -1.351562 l 2.585938 1.492187 v -1.128906 z m -0.488281 -3.265625 l -2.097656 -1.210937 v -2.421875 l 2.097656 -1.210938 l 2.097657 1.210938 v 2.421875 z m 0 0"/>
</svg>
