<?xml version="1.0" encoding="UTF-8"?>
<svg height="128px" viewBox="0 0 128 128" width="128px" xmlns="http://www.w3.org/2000/svg">
    <path d="m 20.21875 14.871094 h 88 c 4.417969 0 8 3.582031 8 8 v 84 c 0 4.417968 -3.582031 8 -8 8 h -88 c -4.417969 0 -8 -3.582032 -8 -8 v -84 c 0 -4.417969 3.582031 -8 8 -8 z m 0 0" fill="#f5c211"/>
    <path d="m 20.21875 10.871094 h 88 c 4.417969 0 8 3.582031 8 8 v 84 c 0 4.417968 -3.582031 8 -8 8 h -88 c -4.417969 0 -8 -3.582032 -8 -8 v -84 c 0 -4.417969 3.582031 -8 8 -8 z m 0 0" fill="#f5c211"/>
    <path d="m 49.226562 61.507812 h 29.984376 v 7.121094 h -29.984376 z m 0 0"/>
    <path d="m 49.226562 71.925781 h 29.984376 v 7.121094 h -29.984376 z m 0 0"/>
    <path d="m 49.917969 82.722656 c 1.75 5.5625 6.65625 9.714844 12.617187 10.382813 v 4.042969 c 0 0.929687 0.753906 1.6875 1.683594 1.6875 c 0.933594 0 1.6875 -0.757813 1.6875 -1.6875 v -4.042969 c 5.960938 -0.667969 10.867188 -4.820313 12.613281 -10.382813 z m 0 0"/>
    <path d="m 48.511719 33.621094 c 0.898437 0.277344 1.828125 0.164062 2.601562 -0.246094 c 2.164063 1.839844 3.570313 3.65625 4.496094 5.226562 c -3.855469 2.710938 -6.382813 7.1875 -6.382813 12.261719 v 7.121094 h 29.984376 v -7.121094 c 0 -5.074219 -2.527344 -9.550781 -6.382813 -12.261719 c 0.929687 -1.570312 2.332031 -3.386718 4.496094 -5.226562 c 0.773437 0.410156 1.699219 0.523438 2.601562 0.246094 c 1.816407 -0.554688 2.832031 -2.472656 2.28125 -4.28125 c -0.554687 -1.8125 -2.472656 -2.832032 -4.285156 -2.277344 c -1.8125 0.550781 -2.832031 2.46875 -2.277344 4.28125 c 0.039063 0.132812 0.101563 0.25 0.15625 0.375 c -2.3125 1.980469 -3.867187 3.972656 -4.90625 5.734375 c -2.011719 -1.003906 -4.273437 -1.582031 -6.675781 -1.582031 c -2.398438 0 -4.660156 0.578125 -6.675781 1.582031 c -1.039063 -1.761719 -2.59375 -3.753906 -4.90625 -5.734375 c 0.054687 -0.125 0.117187 -0.242188 0.15625 -0.375 c 0.554687 -1.8125 -0.464844 -3.730469 -2.277344 -4.28125 c -1.8125 -0.554688 -3.730469 0.464844 -4.28125 2.277344 c -0.554687 1.808594 0.464844 3.726562 2.277344 4.28125 z m 0 0"/>
    <path d="m 41.863281 89.710938 c -3.28125 0 -6.234375 -1.316407 -8.394531 -3.46875 c -2.152344 -2.160157 -3.472656 -5.113282 -3.472656 -8.394532 c 0 -1.082031 0.144531 -2.128906 0.421875 -3.121094 c 2.796875 2.632813 6.550781 4.246094 10.695312 4.246094 c 2.125 0 4.152344 -0.429687 5.996094 -1.199218 v -4.191407 c -1.761719 1.039063 -3.800781 1.640625 -5.996094 1.640625 c -3.28125 0 -6.234375 -1.328125 -8.394531 -3.476562 c -0.210938 -0.210938 -0.410156 -0.429688 -0.605469 -0.660156 c -0.878906 -1.011719 -1.574219 -2.175782 -2.0625 -3.441407 c -0.515625 -1.328125 -0.800781 -2.773437 -0.800781 -4.289062 c 0 -3.28125 1.316406 -6.242188 3.46875 -8.394531 c 2.160156 -2.152344 5.113281 -3.476563 8.394531 -3.476563 c 2.195313 0 4.234375 0.601563 5.996094 1.640625 v -4.1875 c -1.84375 -0.769531 -3.871094 -1.199219 -5.996094 -1.199219 c -8.625 0.003907 -15.613281 6.992188 -15.613281 15.617188 c 0 2.910156 0.796875 5.628906 2.183594 7.960937 c -0.921875 1.988282 -1.433594 4.199219 -1.433594 6.53125 c 0 8.625 6.988281 15.613282 15.613281 15.613282 c 3.738281 0 7.167969 -1.316407 9.855469 -3.503907 c -0.847656 -0.910156 -1.597656 -1.917969 -2.238281 -3.011719 c -2.066407 1.730469 -4.710938 2.765626 -7.617188 2.765626 z m 0 0"/>
    <path d="m 102.9375 63.355469 c 0 -8.625 -6.988281 -15.613281 -15.613281 -15.617188 c -2.125 0 -4.148438 0.429688 -5.996094 1.199219 v 4.1875 c 1.761719 -1.039062 3.800781 -1.640625 5.996094 -1.640625 c 3.28125 0 6.234375 1.324219 8.394531 3.476563 c 2.152344 2.152343 3.46875 5.113281 3.46875 8.394531 c 0 1.515625 -0.285156 2.960937 -0.800781 4.289062 c -0.484375 1.265625 -1.183594 2.429688 -2.058594 3.441407 c -0.195313 0.230468 -0.398437 0.449218 -0.609375 0.660156 c -2.160156 2.148437 -5.113281 3.476562 -8.394531 3.476562 c -2.195313 0 -4.234375 -0.601562 -5.996094 -1.640625 v 4.191407 c 1.847656 0.769531 3.871094 1.199218 5.996094 1.199218 c 4.144531 0 7.898437 -1.613281 10.695312 -4.246094 c 0.277344 0.992188 0.421875 2.039063 0.421875 3.121094 c 0 3.28125 -1.320312 6.234375 -3.472656 8.394532 c -2.15625 2.152343 -5.109375 3.46875 -8.394531 3.46875 c -2.90625 0 -5.550781 -1.035157 -7.617188 -2.765626 c -0.636719 1.09375 -1.390625 2.097657 -2.234375 3.011719 c 2.683594 2.1875 6.113282 3.503907 9.851563 3.503907 c 8.628906 0 15.613281 -6.988282 15.613281 -15.617188 c 0 -2.328125 -0.511719 -4.539062 -1.429688 -6.527344 c 1.382813 -2.332031 2.179688 -5.050781 2.179688 -7.960937 z m 0 0"/>
</svg>
